<svg width="156" height="46" viewBox="0 0 156 46" fill="none" xmlns="http://www.w3.org/2000/svg">
<path d="M133.57 4.44727C122.087 7.54102 116.986 8.94609 116.857 9.04277C116.321 9.44238 116.321 9.79688 116.841 11.0473L117.242 12.0076L116.922 12.3105C115.857 13.3289 115.712 14.7984 116.553 15.9521C116.777 16.2551 117.402 16.7771 117.73 16.9318L117.963 17.0414V24.4922C117.963 29.6549 117.987 32.0139 118.051 32.1943C118.155 32.4973 118.467 32.7873 118.819 32.9098C119.036 32.9871 121.886 33 136.517 33C153.741 33 153.95 33 154.27 32.8711C154.454 32.8002 154.686 32.6391 154.798 32.5037L154.999 32.2652V23.1129V13.9541L139.391 13.9219L123.784 13.8896L123.68 13.5545C123.624 13.3676 123.48 13.0711 123.376 12.8971L123.176 12.5813L130.639 10.5703C134.747 9.46172 141.457 7.65703 145.549 6.56133C149.649 5.45918 153.029 4.5375 153.069 4.51172C153.101 4.47949 152.765 3.5707 152.324 2.49434C151.459 0.4125 151.371 0.277149 150.819 0.0902349C150.674 0.0386724 150.458 4.76837e-07 150.33 4.76837e-07C150.202 4.76837e-07 142.667 2.00449 133.57 4.44727ZM146.847 2.2043C146.831 2.24941 146.623 2.92617 146.39 3.70606C146.158 4.48594 145.934 5.15625 145.878 5.19492C145.774 5.28516 142.074 6.27773 142.018 6.23262C142.002 6.21973 142.194 5.53008 142.442 4.69863L142.907 3.19043L144.829 2.66191C145.886 2.37188 146.783 2.1334 146.823 2.1334C146.855 2.12695 146.871 2.16563 146.847 2.2043ZM137.021 4.81465C137.021 4.84688 136.821 5.54297 136.565 6.36152L136.1 7.86328L134.178 8.37891C133.121 8.6625 132.232 8.89453 132.208 8.89453C132.168 8.89453 132.737 6.89648 133.025 6.0457L133.097 5.81367L135.003 5.29805C137.053 4.73731 137.021 4.74375 137.021 4.81465ZM127.22 7.52168C127.196 7.58613 127.011 8.17266 126.811 8.83008C126.611 9.4875 126.411 10.132 126.363 10.2609L126.291 10.493L124.353 11.015C123.288 11.2986 122.399 11.5242 122.383 11.5049C122.367 11.492 122.559 10.7959 122.815 9.96445L123.288 8.44336L125.17 7.93418C126.203 7.65059 127.099 7.41856 127.156 7.41856C127.22 7.41211 127.244 7.45723 127.22 7.52168ZM120.733 12.8906C121.686 13.2193 122.151 14.1926 121.718 14.9531C121.502 15.3398 121.206 15.5848 120.725 15.7652C119.42 16.2615 117.923 15.4816 117.939 14.3215C117.947 13.9025 118.051 13.6576 118.331 13.3547C118.899 12.7617 119.836 12.5813 120.733 12.8906ZM129.254 14.8564C129.254 14.8951 127.324 17.3572 127.212 17.4539C127.148 17.5119 126.643 17.5313 125.065 17.5184L123.007 17.499L124.057 16.1584L125.106 14.8242H127.18C128.325 14.8242 129.254 14.8371 129.254 14.8564ZM139.584 14.8693C139.576 14.9016 139.119 15.501 138.559 16.21L137.534 17.499L135.468 17.5184C133.786 17.5313 133.41 17.5184 133.434 17.4475C133.45 17.4023 133.906 16.79 134.459 16.0939L135.46 14.8242H137.518C138.655 14.8242 139.584 14.8436 139.584 14.8693ZM149.137 15.9006C148.673 16.5 148.2 17.0994 148.08 17.2412L147.864 17.499L145.798 17.5184C143.988 17.5313 143.732 17.5184 143.772 17.4346C143.804 17.383 144.268 16.7771 144.805 16.0811L145.79 14.8242H147.888H149.986L149.137 15.9006ZM138.054 22.5586C139.904 23.4996 141.425 24.2859 141.425 24.3117C141.425 24.3439 135.155 27.5344 134.563 27.8051C134.483 27.8438 134.459 27.1219 134.459 24.2988C134.459 21.3275 134.475 20.7539 134.571 20.799C134.627 20.8248 136.196 21.6176 138.054 22.5586Z" fill="#FB2576"/>
<path d="M15.984 36H12.624L5.016 24.504V36H1.656V19.224H5.016L12.624 30.744V19.224H15.984V36ZM25.2084 36.216C23.9284 36.216 22.7764 35.936 21.7524 35.376C20.7284 34.8 19.9204 33.992 19.3284 32.952C18.7524 31.912 18.4644 30.712 18.4644 29.352C18.4644 27.992 18.7604 26.792 19.3524 25.752C19.9604 24.712 20.7844 23.912 21.8244 23.352C22.8644 22.776 24.0244 22.488 25.3044 22.488C26.5844 22.488 27.7444 22.776 28.7844 23.352C29.8244 23.912 30.6404 24.712 31.2324 25.752C31.8404 26.792 32.1444 27.992 32.1444 29.352C32.1444 30.712 31.8324 31.912 31.2084 32.952C30.6004 33.992 29.7684 34.8 28.7124 35.376C27.6724 35.936 26.5044 36.216 25.2084 36.216ZM25.2084 33.288C25.8164 33.288 26.3844 33.144 26.9124 32.856C27.4564 32.552 27.8884 32.104 28.2084 31.512C28.5284 30.92 28.6884 30.2 28.6884 29.352C28.6884 28.088 28.3524 27.12 27.6804 26.448C27.0244 25.76 26.2164 25.416 25.2564 25.416C24.2964 25.416 23.4884 25.76 22.8324 26.448C22.1924 27.12 21.8724 28.088 21.8724 29.352C21.8724 30.616 22.1844 31.592 22.8084 32.28C23.4484 32.952 24.2484 33.288 25.2084 33.288ZM41.9771 22.512C43.5611 22.512 44.8411 23.016 45.8171 24.024C46.7931 25.016 47.2811 26.408 47.2811 28.2V36H43.9211V28.656C43.9211 27.6 43.6571 26.792 43.1291 26.232C42.6011 25.656 41.8811 25.368 40.9691 25.368C40.0411 25.368 39.3051 25.656 38.7611 26.232C38.2331 26.792 37.9691 27.6 37.9691 28.656V36H34.6091V22.704H37.9691V24.36C38.4171 23.784 38.9851 23.336 39.6731 23.016C40.3771 22.68 41.1451 22.512 41.9771 22.512ZM54.3883 25.464V31.896C54.3883 32.344 54.4923 32.672 54.7003 32.88C54.9243 33.072 55.2923 33.168 55.8043 33.168H57.3643V36H55.2523C52.4203 36 51.0043 34.624 51.0043 31.872V25.464H49.4203V22.704H51.0043V19.416H54.3883V22.704H57.3643V25.464H54.3883ZM65.685 36.216C64.405 36.216 63.253 35.936 62.229 35.376C61.205 34.8 60.397 33.992 59.805 32.952C59.229 31.912 58.941 30.712 58.941 29.352C58.941 27.992 59.237 26.792 59.829 25.752C60.437 24.712 61.261 23.912 62.301 23.352C63.341 22.776 64.501 22.488 65.781 22.488C67.061 22.488 68.221 22.776 69.261 23.352C70.301 23.912 71.117 24.712 71.709 25.752C72.317 26.792 72.621 27.992 72.621 29.352C72.621 30.712 72.309 31.912 71.685 32.952C71.077 33.992 70.245 34.8 69.189 35.376C68.149 35.936 66.981 36.216 65.685 36.216ZM65.685 33.288C66.293 33.288 66.861 33.144 67.389 32.856C67.933 32.552 68.365 32.104 68.685 31.512C69.005 30.92 69.165 30.2 69.165 29.352C69.165 28.088 68.829 27.12 68.157 26.448C67.501 25.76 66.693 25.416 65.733 25.416C64.773 25.416 63.965 25.76 63.309 26.448C62.669 27.12 62.349 28.088 62.349 29.352C62.349 30.616 62.661 31.592 63.285 32.28C63.925 32.952 64.725 33.288 65.685 33.288ZM82.4537 22.512C84.0377 22.512 85.3177 23.016 86.2937 24.024C87.2697 25.016 87.7577 26.408 87.7577 28.2V36H84.3977V28.656C84.3977 27.6 84.1337 26.792 83.6057 26.232C83.0777 25.656 82.3577 25.368 81.4457 25.368C80.5177 25.368 79.7817 25.656 79.2377 26.232C78.7097 26.792 78.4457 27.6 78.4457 28.656V36H75.0857V22.704H78.4457V24.36C78.8937 23.784 79.4617 23.336 80.1497 23.016C80.8537 22.68 81.6217 22.512 82.4537 22.512Z" fill="#FB2576"/>
<path d="M101.297 19.248V21.96H94.3129V26.256H99.6649V28.92H94.3129V36H90.9529V19.248H101.297ZM105.383 21.12C104.791 21.12 104.295 20.936 103.895 20.568C103.511 20.184 103.319 19.712 103.319 19.152C103.319 18.592 103.511 18.128 103.895 17.76C104.295 17.376 104.791 17.184 105.383 17.184C105.975 17.184 106.463 17.376 106.847 17.76C107.247 18.128 107.447 18.592 107.447 19.152C107.447 19.712 107.247 20.184 106.847 20.568C106.463 20.936 105.975 21.12 105.383 21.12ZM107.039 22.704V36H103.679V22.704H107.039ZM113.719 18.24V36H110.359V18.24H113.719ZM133.551 22.512C135.183 22.512 136.495 23.016 137.487 24.024C138.495 25.016 138.999 26.408 138.999 28.2V36H135.639V28.656C135.639 27.616 135.375 26.824 134.847 26.28C134.319 25.72 133.599 25.44 132.687 25.44C131.775 25.44 131.047 25.72 130.503 26.28C129.975 26.824 129.711 27.616 129.711 28.656V36H126.351V28.656C126.351 27.616 126.087 26.824 125.559 26.28C125.031 25.72 124.311 25.44 123.399 25.44C122.471 25.44 121.735 25.72 121.191 26.28C120.663 26.824 120.399 27.616 120.399 28.656V36H117.039V22.704H120.399V24.312C120.831 23.752 121.383 23.312 122.055 22.992C122.743 22.672 123.495 22.512 124.311 22.512C125.351 22.512 126.279 22.736 127.095 23.184C127.911 23.616 128.543 24.24 128.991 25.056C129.423 24.288 130.047 23.672 130.863 23.208C131.695 22.744 132.591 22.512 133.551 22.512Z" fill="white"/>
</svg>
