<svg width="683" height="683" viewBox="0 0 683 683" fill="none" xmlns="http://www.w3.org/2000/svg">
<path d="M83.9999 145.067C75.4665 148.267 62.6665 161.467 59.5999 170C52.2665 191.2 61.9999 214.267 82.3999 223.733L89.9999 227.333H283.333C503.067 227.333 484.267 228.4 497.867 215.867C507.733 206.933 511.2 198.667 511.333 184.667C511.333 175.6 510.8 172.8 507.6 166.4C503.6 158.133 496.533 151.067 487.733 146.4L482 143.333L286 143.067C105.333 142.8 89.4665 143.067 83.9999 145.067Z" fill="white"/>
<path d="M567.6 145.333C557.6 149.2 550 156.267 545.066 166.267C541.466 173.733 540.8 176.533 540.8 184.533C540.933 222.4 586.4 241.6 612.933 215.067C621.733 206.267 624.666 198.667 624.666 184.667C624.666 174.267 624.133 171.733 621.066 165.867C616.266 156.8 606 147.733 597.333 144.933C588.266 142 575.733 142.133 567.6 145.333Z" fill="white"/>
<path d="M83.9999 315.733C75.4665 318.933 62.6665 332.133 59.5999 340.667C52.2665 361.867 61.9999 384.933 82.3999 394.4L89.9999 398H283.333C503.067 398 484.267 399.067 497.867 386.533C507.733 377.6 511.2 369.333 511.333 355.333C511.333 346.267 510.8 343.467 507.6 337.067C503.6 328.8 496.533 321.733 487.733 317.067L482 314L286 313.733C105.333 313.467 89.4665 313.733 83.9999 315.733Z" fill="white"/>
<path d="M83.9999 486.4C75.4665 489.6 62.6665 502.8 59.5999 511.333C52.2665 532.533 61.9999 555.6 82.3999 565.067L89.9999 568.667H198C321.2 568.667 314 569.333 327.2 557.2C337.067 548.267 340.533 540 340.667 526C340.667 516.933 340.133 514.133 336.933 507.733C332.933 499.467 325.867 492.4 317.067 487.733L311.333 484.667L200.667 484.4C99.7332 484.133 89.4665 484.4 83.9999 486.4Z" fill="white"/>
</svg>
